<?xml version="1.0" standalone="no"?><!DOCTYPE svg PUBLIC "-//W3C//DTD SVG 1.1//EN" "http://www.w3.org/Graphics/SVG/1.1/DTD/svg11.dtd"><svg t="1490184423144" class="icon" style="" viewBox="0 0 1024 1024" version="1.1" xmlns="http://www.w3.org/2000/svg" p-id="2525" xmlns:xlink="http://www.w3.org/1999/xlink" width="200" height="200"><defs><style type="text/css"></style></defs><path d="M1012.812829 504.371055a508.846527 500.808854 89.488 1 0-1001.577716 8.950422 508.846527 500.808854 89.488 1 0 1001.577716-8.950422Z" fill="#6C71B4" p-id="2526"></path><path d="M355.984106 163.385135c0.618258-1.236516 1.236516-2.473031 0.618258-3.709546-0.618258-1.236516-1.236516-2.473031-2.473031-2.473032l-42.659789-16.074703c-1.854773-0.618258-3.709547 0-4.946062 1.236516l-24.730312 34.004179-0.618258 16.074703 2.473031-0.618258 22.257281-30.91289c0.618258-0.618258 1.236516-0.618258 1.854774-0.618258l29.058116 10.510383c0.618258 0 0.618258 0.618258 1.236516 1.236516v1.236515l-14.219929 19.78425-2.473032 16.692961c0.618258-0.618258 1.236516-1.854773 1.854774-2.473031 0.618258-0.618258 1.236516-0.618258 1.854773-0.618258l30.91289-43.278047z" fill="#FFFFFF" p-id="2527"></path><path d="M281.79317 175.750291s6.800836 3.709547 7.419093 8.037352l-6.182578 8.655609s4.946062-8.037351-1.236515-16.692961" fill="#CCCCCC" p-id="2528"></path><path d="M255.208084 170.804229c-3.709547 5.56432-0.618258 14.838187 6.800836 20.402508 3.709547 2.473031 7.419094 4.327805 11.128641 4.327804L264.481951 167.094682c-3.709547-0.618258-7.419094 1.236516-9.273867 3.709547" fill="#EDEDED" p-id="2529"></path><path d="M283.647943 191.824994c3.709547-5.56432 0.618258-14.838187-6.800836-20.402507-3.709547-3.091289-8.037351-4.327805-12.365156-4.327805l8.65561 29.058117c4.946062 0 8.655609-1.854773 10.510382-4.327805" fill="#FFFFFF" p-id="2530"></path><path d="M322.598185 191.206737s7.419094 2.473031 8.037351 6.800835l-6.182578 8.65561s4.327805-6.182578-1.854773-15.456445" fill="#CCCCCC" p-id="2531"></path><path d="M327.544247 202.335377c0-4.946062-3.091289-11.12864-8.655609-15.456445-4.327805-3.091289-9.273867-4.327805-13.601672-4.327805l9.273867 28.439859c8.037351 1.236516 11.12864-6.182578 12.983414-8.655609" fill="#FFFFFF" p-id="2532"></path><path d="M305.286966 183.169385c-3.091289 0-6.182578 1.854773-8.037351 4.327805-3.709547 5.56432-1.236516 15.456445 6.800836 20.402507 4.327805 2.473031 7.419094 3.709547 9.892125 3.709547l-8.65561-28.439859z" fill="#EDEDED" p-id="2533"></path><path d="M427.083754 76.829043l-1.854773-1.854774c-0.618258 0-1.854773 0-2.473032 0.618258l-25.966827 19.165992c-1.236516 0.618258-1.236516 2.473031-1.236516 3.709547l10.510383 27.821601 9.273867 6.800836 0.618258-1.854773-9.892125-25.966828c0-0.618258 0-1.236516 0.618257-1.236516l17.311219-12.983414h1.236516c0.618258 0 0.618258 0.618258 0.618257 0.618258l6.182578 16.074703 8.65561 8.037351c0-0.618258-0.618258-1.236516-0.618258-1.854773v-1.236516l-12.983414-35.858952z" fill="#FFFFFF" p-id="2534"></path><path d="M406.062989 125.671409s4.946062-2.473031 7.419093-1.236515l2.473032 6.800836s-2.473031-5.56432-9.892125-5.564321" fill="#CCCCCC" p-id="2535"></path><path d="M393.079575 139.891339c1.854773 4.327805 8.655609 6.182578 14.838187 3.709547 3.091289-1.236516 5.56432-3.091289 6.800836-4.946063l-20.402508-6.182578c-1.854773 2.473031-2.473031 4.946062-1.236515 7.419094" fill="#EDEDED" p-id="2536"></path><path d="M415.955114 130.617472c-1.854773-4.327805-8.655609-6.182578-14.838188-3.709547-3.091289 1.236516-5.56432 3.091289-7.419093 5.56432l20.402507 5.56432c1.854773-1.854773 3.091289-4.946062 1.854774-7.419093" fill="#FFFFFF" p-id="2537"></path><path d="M430.793301 107.741933s4.327805-3.091289 7.419093-2.473031l2.473032 6.800836s-2.473031-4.946062-9.892125-4.327805" fill="#CCCCCC" p-id="2538"></path><path d="M439.44891 108.978449c-3.091289-1.854773-7.419094-2.473031-12.365156-0.618258-3.709547 1.236516-6.182578 3.709547-8.037351 6.182578l20.402507 5.56432c3.709547-4.327805 0.618258-9.273867 0-11.12864" fill="#FFFFFF" p-id="2539"></path><path d="M419.046403 114.542769c-1.236516 1.854773-1.236516 4.327805-0.618258 6.182578 1.854773 4.327805 8.655609 6.800836 14.838187 3.709547 3.091289-1.236516 4.946062-3.091289 6.182578-4.327805l-20.402507-5.56432z" fill="#EDEDED" p-id="2540"></path><path d="M265.718467 295.692306c0.618258-0.618258 1.236516-1.236516 1.236515-1.854774 0-0.618258 0-1.854773-0.618257-1.854773l-17.929477-21.020766c-0.618258-0.618258-1.854773-1.236516-3.091289-0.618257l-22.875538 11.12864-4.946063 8.037352h1.854774l20.402507-9.892125h1.236516l12.365156 13.601671v0.618258s0 0.618258-0.618258 0.618258l-12.983414 6.182578-6.182578 8.037352c0.618258 0 1.236516-0.618258 1.854773-0.618258h1.236516l29.058117-12.365156z" fill="#FFFFFF" p-id="2541"></path><path d="M223.676936 280.854118s2.473031 3.709547 1.854774 6.182578l-5.564321 2.473032c-0.618258 0.618258 4.327805-1.854773 3.709547-8.65561" fill="#CCCCCC" p-id="2542"></path><path d="M210.693522 270.961993c-3.709547 1.854773-4.946062 7.419094-1.854773 12.365157 1.236516 2.473031 3.091289 4.327805 4.946062 5.56432l3.709547-17.311219c-2.473031-1.236516-4.946062-1.236516-6.800836-0.618258" fill="#EDEDED" p-id="2543"></path><path d="M219.967389 290.127985c3.709547-1.854773 4.946062-7.419094 1.854774-12.365156-1.236516-2.473031-3.091289-4.327805-4.946063-5.56432l-3.709547 17.311219c2.473031 1.236516 4.946062 1.236516 6.800836 0.618257" fill="#FFFFFF" p-id="2544"></path><path d="M240.369897 300.638368s3.091289 3.709547 2.473031 6.182578l-6.182578 2.473031s4.327805-1.854773 3.709547-8.655609" fill="#CCCCCC" p-id="2545"></path><path d="M239.751639 308.057462c1.854773-2.473031 1.854773-6.800836 0-10.510383-1.236516-3.091289-3.709547-4.946062-6.182578-6.182578l-3.091289 17.929476c3.709547 2.473031 7.419094-0.618258 9.273867-1.236515" fill="#FFFFFF" p-id="2546"></path><path d="M233.569061 291.364501c-1.854773-0.618258-3.709547-0.618258-5.56432 0-3.709547 1.854773-4.946062 7.419094-1.854774 12.365156 1.236516 2.473031 3.091289 4.327805 4.327805 4.946063l3.091289-17.311219z" fill="#EDEDED" p-id="2547"></path><path d="M331.872052 446.54721a45.13282 22.875539 90 1 0 45.751078 0 45.13282 22.875539 90 1 0-45.751078 0Z" fill="#EFA16F" p-id="2548"></path><path d="M838.225194 897.875408l-35.858952-153.946194s-81.61003-52.551913-170.020897-54.406687H519.822425l-2.473031 328.913153s167.547865 24.730312 320.8758-120.560272z" fill="#EE4825" p-id="2549"></path><path d="M174.83457 884.891994l66.771842-140.96278s81.61003-52.551913 170.020897-54.406687H524.150229l-5.56432 333.859215c0 0.618258-239.265771-20.402508-343.751339-138.489748z" fill="#EE4825" p-id="2550"></path><path d="M597.722908 687.049496c-3.709547 0-7.419094-1.236516-9.892125-3.709547-2.473031-2.473031-4.327805-6.182578-4.327804-9.892124V575.763091H433.88459v100.157765c0 7.419094-6.182578 13.601672-13.601672 13.601671l-19.78425 0.618258s1.854773 73.572679 106.958601 80.373515c105.103827 6.182578 110.668147-83.464804 110.668147-83.464804h-20.402508z" fill="#FCE6E4" p-id="2551"></path><path d="M445.01323 633.261067l136.634975 118.705499c22.257281-17.311219 30.91289-32.767664 36.477211-64.91707-1.854773-0.618258-33.385921 8.037351-34.622437-11.12864l0.618257-92.120413-100.157764-1.236516-38.950242 50.69714z" fill="#532617" p-id="2552"></path><path d="M349.183271 384.72143c-2.473031 14.838187-3.709547 29.676375-3.709547 45.132819 0 122.415045 75.427452 221.336294 168.166123 221.336295h0.618258V333.406032c-72.954421-84.701319-89.647382-110.049889-165.074834 51.315398z" fill="#FCE6E4" p-id="2553"></path><path d="M720.137954 428.617734c0 54.406687-32.149406 98.302991-60.589265 98.302991-21.639023 0-17.311219-43.278046-17.311219-98.302991s17.311219-98.921249 38.950242-98.921249 38.950242 44.514562 38.950242 98.921249z" fill="#D3A781" p-id="2554"></path><path d="M682.424227 429.854249c0-15.456445-1.236516-30.91289-3.709546-45.132819-125.506334-127.979366-158.273998-105.103827-164.456576-79.136999v346.22437c92.738671-0.618258 168.166123-99.539507 168.166122-221.954552zM514.258105 457.675851l-30.912891 77.282225 30.912891 4.327805" fill="#FBD8D6" p-id="2555"></path><path d="M595.868135 462.621913c-9.273867 0-19.78425-2.473031-32.149406-8.655609-1.236516-0.618258-1.854773-2.473031-1.236516-4.327805 0.618258-1.236516 2.473031-1.854773 4.327805-1.236516 35.858953 18.547734 58.734491-1.854773 59.971007-3.091289 1.236516-1.236516 3.091289-1.236516 4.327805 0 1.236516 1.236516 1.236516 3.091289 0 4.327805-0.618258 1.236516-13.601672 12.983414-35.240695 12.983414zM437.594137 462.621913c-9.273867 0-19.78425-2.473031-32.149406-8.655609-1.236516-0.618258-1.854773-2.473031-1.236516-4.327805 0.618258-1.236516 2.473031-1.854773 4.327805-1.236516 35.858953 18.547734 58.734491-1.854773 59.971007-3.091289 1.236516-1.236516 3.091289-1.236516 4.327805 0 1.236516 1.236516 1.236516 3.091289 0 4.327805-0.618258 1.236516-13.601672 12.983414-35.240695 12.983414z" fill="" p-id="2556"></path><path d="M660.785204 446.54721a45.13282 22.875539 90 1 0 45.751078 0 45.13282 22.875539 90 1 0-45.751078 0Z" fill="#FCE6E4" p-id="2557"></path><path d="M427.702012 324.132165s210.825912 35.858953 257.813505 149.000131v-105.103827l30.294632 12.365156s-25.34857-184.859084-195.987724-181.767795c-167.547865 3.091289-191.041662 174.348701-191.041662 174.348701l5.56432 105.103827 15.456445-37.713726s77.900483-21.020765 77.900484-116.232467z" fill="#D3A781" p-id="2558"></path><path d="M511.166815 591.837794c-30.294632 0-53.170171-12.365156-53.788429-12.365156-1.236516-0.618258-1.854773-2.473031-1.236515-4.327804 0.618258-1.236516 2.473031-1.854773 4.327804-1.236516 0.618258 0 56.26146 29.676375 106.958601-6.182578 1.236516-1.236516 3.091289-0.618258 4.327804 0.618258 1.236516 1.236516 0.618258 3.091289-0.618257 4.327804-20.402508 14.838187-41.423273 19.165992-59.971008 19.165992z" fill="" p-id="2559"></path><path d="M427.702012 324.132165s79.136999 43.896304 82.228288 89.647381L492.000824 315.476555s59.352749 56.26146 62.444038 80.373515L536.515386 307.439204l-49.460625-19.165992-43.278046-0.618258-16.074703 36.477211z" fill="#D3A781" p-id="2560"></path><path d="M323.216443 412.543031v-3.091289c1.854773-118.087241 90.883897-212.680685 199.079013-211.44417 108.195116 1.236516 195.369466 98.302991 193.514693 216.390232v3.091289c15.456445 18.547734 25.966828 17.929476 38.950242 0.618258v-3.091289c1.854773-141.581037-102.012538-251.630927-231.846677-253.4857-129.834139-1.854773-236.792739 105.722085-238.647513 247.303122v3.091289c14.838187 38.331984 24.112054 39.5685 38.950242 0.618258z" fill="#3A363F" p-id="2561"></path><path d="M759.706453 509.609506c-2.473031 8.655609-8.037351 15.456445-15.456445 19.78425-7.419094 4.327805-16.692961 5.56432-25.34857 3.091289l-6.182578-1.854773c-17.311219-4.946062-27.821601-23.493797-22.875539-40.805016l16.074703-56.26146c4.946062-17.311219 23.493797-27.821601 40.805015-22.875539l6.182578 1.854774c17.311219 4.946062 27.821601 23.493797 22.875539 40.805015l-16.074703 56.26146z" fill="#DD1D3D" p-id="2562"></path><path d="M567.428276 1020.908711c-16.074703-0.618258-71.099648-4.946062-101.39428-45.13282-21.020765-27.821601-24.730312-65.535327-12.983414-113.141178 19.165992-72.954421-30.91289-92.120413-87.792608-114.377694-37.095468-14.21993-79.136999-30.294632-106.340343-63.680554-16.074703-20.402508-22.257281-42.041531-17.929476-64.91707 10.510383-56.26146 80.991772-97.066475 84.083061-98.921248l3.091289 5.56432c-0.618258 0.618258-71.099648 41.423273-80.991772 94.593444-3.709547 21.020765 1.854773 40.805015 16.69296 59.971007 25.34857 32.149406 64.91707 47.605851 103.249054 61.825781 57.497976 22.257281 112.522921 42.659789 92.120413 121.796787-11.746898 45.751078-8.037351 81.61003 11.746898 107.576858 28.439859 37.713726 80.991772 42.659789 96.448218 42.659789v6.182578z" fill="#FFFFFF" p-id="2563"></path><path d="M347.946755 494.771319c2.473031 17.929476-9.892125 34.622437-27.821601 37.713726l-6.182578 0.618258c-17.929476 2.473031-34.622437-9.892125-37.713726-27.821601l-8.65561-57.497976c-2.473031-17.929476 9.892125-34.622437 27.821602-37.713726l6.800835-1.236516c17.929476-2.473031 34.622437 9.892125 37.713726 27.821601l8.037352 58.116234z" fill="#DD1D3D" p-id="2564"></path><path d="M404.826473 427.381218c-1.854773 0-3.091289-1.236516-3.091289-3.091289s1.236516-3.091289 3.091289-3.091289l53.788429-4.327805c1.854773 0 3.091289 1.236516 3.091289 3.091289s-1.236516 3.091289-3.091289 3.091289l-53.788429 4.327805zM619.980189 429.854249s-0.618258 0 0 0L566.19176 420.580382c-1.854773 0-3.091289-1.854773-2.473031-3.709547 0-1.854773 1.854773-3.091289 3.709547-2.473031l53.170171 9.273867c1.854773 0 3.091289 1.854773 2.473031 3.709547-0.618258 1.236516-1.854773 2.473031-3.091289 2.473031z" fill="" p-id="2565"></path><path d="M747.341297 957.846415l-33.385921-118.087241-26.585086 145.908842M284.266201 957.846415l33.385922-118.087241 26.585085 145.908842" fill="#944825" p-id="2566"></path></svg>